<?xml version="1.0" encoding="utf-8"?>
<!-- Generator: Adobe Illustrator 26.5.0, SVG Export Plug-In . SVG Version: 6.00 Build 0)  -->
<svg version="1.1" id="Layer_1" xmlns="http://www.w3.org/2000/svg" xmlns:xlink="http://www.w3.org/1999/xlink" x="0px" y="0px"
	 viewBox="0 0 271.8 68.6" style="enable-background:new 0 0 271.8 68.6;" xml:space="preserve">
<style type="text/css">
	.st0{fill:#FAFAFA;}
	.st1{fill:#FFFFFF;}
</style>
<g>
	<g>
		<g>
			<g>
				<path class="st0" d="M-134.8-434.3c2.3-3,4.5-5.5,6.3-8.2c1.4-2,3.2-4.4,1.7-6.6c-1.5-2.2-4.1-0.7-6.3-0.4
					c-2.1,0.2-3.9,1.6-4.5,3.6c-5.8,13.5-13.3,26.1-22.4,37.6c-2.6,3.1-5.5,6-8.6,8.7c-2.6,2.2-4.8,1.5-5.6-1.8
					c-1.2-5-1.9-10.2-2.8-15.3c-0.5-2.9-1.2-5.9-1.9-9.3l-7.1,5.1l-0.4-0.4c1.4-1.6,2.8-3.2,4.3-4.7c14.3-14.5,30.8-25.5,50.6-31
					c4.7-1.1,9.5-2,14.3-2.6c0.9-0.1,1.9-0.1,2.8,0c2.8,0.2,3.7,1.7,2.5,4.3c-1,1.8-2.1,3.6-3.4,5.2
					C-121-444-127.5-438.6-134.8-434.3L-134.8-434.3z"/>
				<path class="st0" d="M-244.3-449.3c-4.7,4.6-8.5,9.9-11.3,15.8c-1,1.8-0.3,4.1,1.6,5.1c0.6,0.3,1.3,0.5,2,0.4
					c3.3,0.1,6.5,0.1,9.8-0.2c0.4,0,0.8-0.1,1.2-0.2l0.3,0.6c-2.4,1.3-5,2.4-7.6,3.2c-4.3,1-8.6,1.6-13,1.9
					c-5.1,0.3-7.5-2.8-5.6-7.5c1.8-4.7,4.2-9.1,7.1-13.2c8.7-11.5,18.9-21.8,30.3-30.6c22.7-19,47.7-35.3,74.3-48.3
					c9-4.7,18.7-7.9,28.7-9.8c4.9-0.8,6.5,2.2,4.8,6.4c-1.4,3.1-3.7,5.8-6.6,7.6c-0.8-1.5-1.5-4.1-2.5-4.3c-2.6-0.1-5.2,0.3-7.6,1.3
					c5.3,3.3,9.4,8.2,11.8,14c-39.3,21.3-75.1,47.1-105.9,80.3L-244.3-449.3z M-182.5-497.5c3.8,2.4,8.4,3.2,12.8,2.4
					c-2.4-0.8-4.7-1.9-6.8-3.3C-179-500.7-180.4-499.2-182.5-497.5L-182.5-497.5z"/>
				<path class="st0" d="M-220.2-397.1c-5,3.7-11.2,5.3-17.4,4.4c-2.4-0.1-4.2-2-4.1-4.4c0-0.4,0.1-0.8,0.2-1.2
					c0.6-2.6,1.6-5.1,2.8-7.5c6-10.2,13.6-19.3,22.4-27.2c21.8-20.6,45.8-38.8,71.5-54.3c10.3-6.7,21.4-12.2,33-16.3
					c2.5-0.9,5.2-1.5,7.8-1.6c2-0.2,4,0.4,5.5,1.8c0.8,1.9,0.6,4-0.4,5.7c-2.8,4-6,7.8-9.3,11.4c-1.8,1.8-3.9,3.3-6.1,4.5
					c1.4-1.9,2.8-3.7,4-5.7c1.2-1.8,2.2-3.7,3.1-5.7c0.9-2.2-0.3-3.7-2.5-2.9c-4.8,1.8-9.5,4-14.3,6.2c-0.6,0.3-0.9,1.4-1,2.2
					c-1.4,6.2-2.6,12.5-4.1,18.7c-0.3,1-1.1,1.8-2,2.2c-18.9,5.5-36.2,15.5-50.3,29.2c-0.4,0.3-0.8,0.6-1.2,0.9
					c-0.5-0.7-1-1.3-1.4-1.9c-3.9-5.2-8.7-5.3-11.9,0.5c-2.2,3.9-3.8,8.1-4.8,12.5c-1.6,6.9-2.5,13.9-3.7,20.9c-0.4,2.3-0.5,5-3,6
					c-2.5,1-4.2-1.2-5.7-2.7c-3.7-3.8-7.3-7.9-11.4-12.4c-2.8,3.9-5.3,8-7.6,12.2c-1.6,3.1,0.2,5.2,3.9,5.4c1.4,0,2.8,0,4.2-0.2
					C-222.9-396.5-221.5-396.9-220.2-397.1z"/>
				<path class="st0" d="M-250.4-465.8c-0.8-2.7-1.5-4.8-2.1-7c-0.6-2.1-1.1-4.3-1.8-7.2c-4,5.1-7.9,9.7-8.3,16.1
					c-0.2,3.5,2.5,4.8,5.3,5.8c-3.9,3.1-9.1,3.9-13.8,2.3c-2.7-1.5-3.8-4.9-2.6-7.7c1.5-4.1,3.5-8.1,6-11.7
					c7.5-10.1,16.6-18.9,27-26.1c14.7-10.9,30.7-20,47.6-27c0.5-0.3,1.1-0.3,1.6-0.2l-14.1,8.3c2.2,1.7,4.2,3.1,6,4.8
					c1.7,1.6,3.2,3.5,5.1,5.5C-214.5-497-233.3-482.2-250.4-465.8L-250.4-465.8z"/>
				<path class="st0" d="M-222.1-524.3l-33,23.3C-256.4-512.8-235.1-528.1-222.1-524.3z"/>
			</g>
		</g>
		<g>
			<g>
				<path class="st1" d="M-247.1-358c-0.7,0-1.4-0.1-2.1-0.2c-0.6-0.1-1.2-0.3-1.8-0.7c-0.3-0.1-0.5-0.4-0.6-0.7
					c-0.1-0.3-0.1-0.6,0-0.8c0.2-0.5,0.7-0.7,1.2-0.6c0.1,0,0.1,0.1,0.2,0.1c0.5,0.3,0.9,0.4,1.4,0.5c0.5,0.1,1,0.2,1.6,0.2
					c0.6,0,1.2-0.1,1.7-0.4c0.3-0.2,0.5-0.5,0.5-0.9c0-0.3-0.1-0.6-0.4-0.7c-0.4-0.2-0.8-0.4-1.3-0.5l-1.8-0.4
					c-2.1-0.4-3.1-1.5-3.1-3.2c0-0.7,0.2-1.4,0.6-1.9c0.4-0.6,1-1,1.6-1.3c0.8-0.3,1.6-0.5,2.4-0.5c0.6,0,1.2,0.1,1.8,0.2
					c0.5,0.1,1.1,0.3,1.5,0.6c0.2,0.1,0.4,0.4,0.5,0.6c0.1,0.2,0,0.5-0.1,0.7c-0.1,0.2-0.3,0.4-0.5,0.5c-0.3,0.1-0.6,0.1-0.9-0.1
					c-0.4-0.2-0.7-0.3-1.1-0.4c-0.4-0.1-0.8-0.1-1.2-0.1c-0.6,0-1.1,0.1-1.6,0.4c-0.4,0.2-0.6,0.6-0.6,1c0,0.3,0.1,0.6,0.3,0.8
					c0.4,0.2,0.8,0.4,1.2,0.5l1.8,0.4c2.1,0.4,3.2,1.5,3.2,3.1c0,0.7-0.2,1.3-0.6,1.9c-0.4,0.6-1,1-1.6,1.3
					C-245.4-358.1-246.3-357.9-247.1-358L-247.1-358z"/>
				<path class="st1" d="M-239.6-358c-0.3,0-0.6-0.1-0.8-0.3c-0.2-0.2-0.3-0.5-0.3-0.9l0-9.4c0-0.3,0.1-0.6,0.3-0.9
					c0.2-0.2,0.6-0.3,0.9-0.3c0.3,0,0.5,0.1,0.8,0.2c0.2,0.2,0.4,0.4,0.5,0.6l3.5,6.3l3.5-6.4c0.1-0.2,0.3-0.5,0.5-0.6
					c0.2-0.1,0.5-0.2,0.8-0.2c0.3,0,0.6,0.1,0.9,0.3c0.2,0.2,0.3,0.6,0.3,0.9l0,9.4c0,0.6-0.5,1.2-1.1,1.2s-1.2-0.5-1.2-1.1
					c0,0,0,0,0-0.1l0-6l-2.6,4.8c-0.1,0.2-0.2,0.3-0.4,0.5c-0.2,0.1-0.4,0.2-0.6,0.2c-0.2,0-0.4,0-0.6-0.2c-0.2-0.1-0.3-0.3-0.4-0.5
					l-2.7-4.7l0,5.9c0.1,0.6-0.3,1.1-0.8,1.2C-239.5-358-239.5-358-239.6-358z"/>
				<path class="st1" d="M-226.2-358.1c-0.4,0-0.8-0.1-1-0.5c-0.2-0.3-0.2-0.8,0-1.1l4.1-9.1c0.1-0.3,0.3-0.6,0.6-0.8
					c0.5-0.3,1.2-0.3,1.7,0c0.3,0.2,0.5,0.5,0.6,0.8l4.2,9.1c0.2,0.3,0.2,0.8,0,1.1c-0.2,0.3-0.6,0.5-0.9,0.5
					c-0.3,0-0.6-0.1-0.9-0.3c-0.2-0.2-0.4-0.5-0.5-0.8l-0.7-1.6l-5.4,0l-0.7,1.6c-0.1,0.3-0.3,0.6-0.5,0.8
					C-225.7-358.2-226-358.1-226.2-358.1z M-221.7-367l-1.8,4.3l3.7,0L-221.7-367L-221.7-367z"/>
				<path class="st1" d="M-213-358.1c-0.3,0-0.7-0.1-0.9-0.3c-0.2-0.3-0.4-0.6-0.3-1l0-9c-0.1-0.6,0.3-1.2,1-1.3c0.1,0,0.2,0,0.3,0
					l4,0c1.1-0.1,2.1,0.3,3,0.9c0.7,0.7,1.1,1.6,1.1,2.6c0,0.8-0.2,1.5-0.7,2.1c-0.5,0.6-1.1,1-1.9,1.2c0.6,0.2,1.1,0.7,1.4,1.2
					l1,1.9c0.2,0.3,0.3,0.8,0.1,1.1c-0.1,0.4-0.5,0.5-1,0.5c-0.3,0-0.6-0.1-0.9-0.2c-0.3-0.2-0.5-0.4-0.6-0.7l-1.6-2.9
					c-0.1-0.3-0.3-0.5-0.6-0.6c-0.3-0.1-0.6-0.2-0.8-0.2l-1.2,0l0,3.3c0,0.3-0.1,0.7-0.3,1C-212.4-358.3-212.7-358.1-213-358.1
					L-213-358.1z M-211.8-364.6l2.3,0c1.4,0,2-0.6,2-1.6c0-1.1-0.7-1.6-2-1.6l-2.3,0L-211.8-364.6z"/>
				<path class="st1" d="M-199.3-358.2c-0.3,0-0.7-0.1-0.9-0.3c-0.2-0.3-0.3-0.6-0.3-1l0-8.2l-2.9,0c-0.6,0-1-0.5-1-1
					c0-0.6,0.5-1,1-1l8.3,0c0.6,0,1,0.5,1,1c0,0.6-0.5,1-1,1l-2.9,0l0,8.2c0,0.3-0.1,0.7-0.3,1C-198.6-358.3-199-358.2-199.3-358.2
					L-199.3-358.2z"/>
				<path class="st1" d="M-187.2-358.4c-0.6,0.1-1.2-0.3-1.3-1c0-0.1,0-0.2,0-0.3l0-8.8c-0.1-0.6,0.3-1.2,1-1.3c0.1,0,0.2,0,0.3,0
					l3.2,0c1.6-0.1,3.3,0.4,4.5,1.5c2.2,2.4,2.2,6.1,0,8.5c-1.3,1.1-2.9,1.6-4.5,1.5L-187.2-358.4z M-186-360.5l1.8,0
					c2.4,0,3.7-1.2,3.6-3.7c0-2.4-1.2-3.7-3.7-3.6l-1.8,0L-186-360.5z"/>
				<path class="st1" d="M-174.6-358.5c-0.6,0.1-1.2-0.3-1.3-1c0-0.1,0-0.2,0-0.3l0-8.8c-0.1-0.6,0.3-1.2,1-1.3c0.1,0,0.2,0,0.3,0
					l5.7,0c0.5,0,1,0.4,1,1c0,0.5-0.4,1-1,1l-4.6,0l0,2.7l4.2,0c0.5,0,1,0.4,1,1c0,0.5-0.4,1-1,1c0,0,0,0,0,0l-4.2,0l0,2.9l4.6,0
					c0.5,0,1,0.4,1,1c0,0.5-0.4,1-1,1L-174.6-358.5z"/>
				<path class="st1" d="M-164.9-358.4c-0.8,0-1.2-0.4-1.2-1.2l0-9.3c0-0.3,0.1-0.7,0.3-0.9c0.2-0.2,0.5-0.3,0.8-0.3
					c0.2,0,0.5,0,0.7,0.2c0.2,0.2,0.4,0.3,0.6,0.6l5.3,6.7l0-6.2c0-0.6,0.5-1.2,1.1-1.2c0.6,0,1.2,0.5,1.2,1.1c0,0,0,0,0,0.1l0,9.4
					c0,0.3-0.1,0.6-0.3,0.9c-0.2,0.2-0.5,0.3-0.7,0.3c-0.3,0-0.5,0-0.7-0.2c-0.2-0.2-0.4-0.3-0.6-0.6l-5.3-6.7l0,6.2
					C-163.7-358.8-164.1-358.4-164.9-358.4L-164.9-358.4z"/>
				<path class="st1" d="M-149.8-358.4c-0.3,0-0.7-0.1-0.9-0.3c-0.2-0.3-0.4-0.6-0.3-1l0-8.2l-2.9,0c-0.6,0-1-0.5-1-1
					c0-0.6,0.5-1,1-1l8.3,0c0.6,0,1,0.5,1,1c0,0.6-0.5,1-1,1l-2.9,0l0,8.2c0,0.3-0.1,0.7-0.3,1
					C-149.1-358.5-149.5-358.4-149.8-358.4L-149.8-358.4z"/>
				<path class="st1" d="M-144.5-358.4c-0.4,0-0.8-0.1-1-0.5c-0.2-0.3-0.2-0.8,0-1.1l4.1-9.1c0.1-0.3,0.3-0.6,0.6-0.8
					c0.5-0.3,1.2-0.3,1.7,0c0.3,0.2,0.5,0.5,0.6,0.8l4.2,9.1c0.2,0.3,0.2,0.8,0,1.1c-0.2,0.3-0.6,0.5-0.9,0.5
					c-0.3,0-0.6-0.1-0.9-0.3c-0.2-0.2-0.4-0.5-0.5-0.8l-0.7-1.6l-5.4,0l-0.7,1.6c-0.1,0.3-0.3,0.6-0.5,0.8
					C-143.9-358.5-144.2-358.4-144.5-358.4L-144.5-358.4z M-139.9-367.4l-1.8,4.3l3.7,0L-139.9-367.4L-139.9-367.4z"/>
				<path class="st1" d="M-131.3-358.6c-0.4,0-0.7-0.1-1-0.3c-0.2-0.3-0.4-0.6-0.3-0.9l0-8.9c0-0.3,0.1-0.7,0.3-1
					c0.3-0.2,0.6-0.4,0.9-0.3c0.6-0.1,1.2,0.3,1.3,1c0,0.1,0,0.2,0,0.3l0,8.1l4.4,0c0.6,0,1.1,0.4,1.1,1c0,0.6-0.4,1.1-1,1.1
					c0,0,0,0-0.1,0L-131.3-358.6z"/>
			</g>
			<g>
				<path class="st1" d="M-247.7-343.6c-0.7,0-1.3-0.1-1.9-0.4c-0.5-0.3-1-0.7-1.2-1.3c-0.6-1.2-0.6-2.7,0-3.9
					c0.3-0.5,0.7-1,1.2-1.3c0.6-0.3,1.2-0.5,1.9-0.5c0.4,0,0.7,0,1.1,0.1c0.3,0.1,0.7,0.2,0.9,0.4c0.2,0.1,0.3,0.2,0.3,0.4
					c0,0.1,0,0.3-0.1,0.4c-0.1,0.1-0.2,0.2-0.3,0.3c-0.2,0-0.4,0-0.5-0.1c-0.2-0.1-0.4-0.2-0.7-0.3c-0.2-0.1-0.5-0.1-0.7-0.1
					c-0.6,0-1.2,0.2-1.7,0.7c-0.8,1.1-0.7,2.6,0,3.7c0.4,0.5,1,0.7,1.7,0.7c0.3,0,0.5,0,0.8-0.1c0.3-0.1,0.5-0.2,0.7-0.3
					c0.1-0.1,0.3-0.1,0.5-0.1c0.1,0,0.3,0.1,0.3,0.2c0.1,0.1,0.1,0.3,0.1,0.4c0,0.2-0.1,0.3-0.3,0.4c-0.3,0.2-0.6,0.4-1,0.5
					C-247-343.6-247.3-343.6-247.7-343.6L-247.7-343.6z"/>
				<path class="st1" d="M-241.2-343.6c-0.6,0-1.3-0.1-1.8-0.4c-0.5-0.3-0.9-0.7-1.2-1.3c-0.6-1.2-0.6-2.7,0-3.9
					c0.3-0.5,0.7-1,1.2-1.3c1.1-0.6,2.5-0.6,3.6,0c0.5,0.3,0.9,0.7,1.2,1.3c0.3,0.6,0.4,1.3,0.4,1.9c0,0.7-0.1,1.3-0.4,2
					c-0.3,0.5-0.7,1-1.2,1.3C-239.9-343.7-240.5-343.6-241.2-343.6z M-241.2-344.7c0.6,0,1.2-0.2,1.5-0.7c0.7-1.2,0.7-2.6,0-3.8
					c-0.8-0.8-2.1-0.9-3-0.1c0,0-0.1,0.1-0.1,0.1c-0.7,1.2-0.7,2.6,0,3.8C-242.3-344.9-241.8-344.7-241.2-344.7z"/>
				<path class="st1" d="M-235.8-343.6c-0.3,0-0.6-0.2-0.6-0.5c0,0,0-0.1,0-0.2l0-6.1c0-0.3,0.2-0.6,0.5-0.6c0.1,0,0.1,0,0.2,0
					c0.1,0,0.3,0,0.4,0.1c0.1,0.1,0.2,0.2,0.3,0.3l2.4,4.3l2.3-4.4c0.1-0.1,0.1-0.2,0.3-0.3c0.1-0.1,0.3-0.1,0.4-0.1
					c0.3,0,0.6,0.2,0.6,0.5c0,0,0,0.1,0,0.1l0,6.1c0,0.3-0.3,0.6-0.6,0.6c-0.3,0-0.6-0.3-0.6-0.6l0-4.3l-1.9,3.5
					c-0.1,0.1-0.1,0.2-0.2,0.3c-0.1,0.1-0.2,0.1-0.3,0.1c-0.1,0-0.2,0-0.3-0.1c-0.1-0.1-0.2-0.2-0.2-0.2l-1.9-3.5l0,4.3
					c0,0.3-0.1,0.6-0.4,0.6C-235.7-343.6-235.7-343.6-235.8-343.6L-235.8-343.6z"/>
				<path class="st1" d="M-226.9-343.7c-0.3,0-0.6-0.2-0.7-0.5c0-0.1,0-0.1,0-0.2l0-5.9c0-0.3,0.2-0.6,0.5-0.7c0.1,0,0.1,0,0.2,0
					l2.4,0c0.7,0,1.3,0.2,1.8,0.6c0.9,0.9,0.9,2.4,0,3.3c-0.5,0.4-1.2,0.6-1.8,0.6l-1.8,0l0,2.1c0.1,0.3-0.2,0.6-0.5,0.7
					C-226.8-343.7-226.9-343.7-226.9-343.7L-226.9-343.7z M-226.3-347.5l1.6,0c0.9,0,1.4-0.4,1.4-1.2c0-0.8-0.5-1.2-1.4-1.2l-1.6,0
					L-226.3-347.5z"/>
				<path class="st1" d="M-220.3-343.8c-0.3,0-0.6-0.2-0.7-0.5c0-0.1,0-0.1,0-0.2l0-5.9c0-0.4,0.3-0.7,0.6-0.7
					c0.4,0,0.7,0.3,0.7,0.6c0,0,0,0,0,0l0,5.4l2.9,0c0.4,0,0.6,0.2,0.6,0.5c0,0.3-0.2,0.5-0.4,0.6c0,0-0.1,0-0.1,0L-220.3-343.8z"/>
				<path class="st1" d="M-214.6-343.7c-0.3,0-0.6-0.2-0.7-0.5c0-0.1,0-0.1,0-0.2l0-6c0-0.4,0.3-0.7,0.6-0.7c0.4,0,0.7,0.3,0.7,0.6
					c0,0,0,0,0,0l0,6c0.1,0.3-0.2,0.6-0.5,0.7C-214.5-343.7-214.5-343.7-214.6-343.7z"/>
				<path class="st1" d="M-212.3-343.7c-0.2,0-0.4-0.1-0.5-0.2c-0.1-0.2-0.1-0.4,0-0.6l2.7-6c0.1-0.2,0.2-0.3,0.3-0.4
					c0.1-0.1,0.3-0.1,0.4-0.1c0.2,0,0.3,0,0.4,0.1c0.1,0.1,0.3,0.3,0.3,0.4l2.7,5.9c0.1,0.2,0.1,0.4,0,0.6c-0.1,0.2-0.3,0.3-0.5,0.2
					c-0.2,0-0.3,0-0.4-0.1c-0.1-0.1-0.2-0.3-0.3-0.4l-0.5-1.2l-3.5,0l-0.5,1.2c-0.1,0.2-0.2,0.3-0.3,0.4
					C-212-343.8-212.1-343.7-212.3-343.7L-212.3-343.7z M-209.4-349.6l-1.3,3.1l2.6,0L-209.4-349.6L-209.4-349.6z"/>
				<path class="st1" d="M-204.2-343.8c-0.3,0-0.6-0.2-0.6-0.5c0-0.1,0-0.1,0-0.2l0-6.1c0-0.2,0-0.3,0.2-0.5
					c0.1-0.1,0.3-0.2,0.4-0.2c0.1,0,0.2,0,0.4,0.1c0.1,0.1,0.2,0.2,0.3,0.3l3.7,4.7l0-4.5c0-0.3,0.2-0.6,0.6-0.6
					c0.3,0,0.6,0.2,0.6,0.6c0,0,0,0,0,0l0,6.1c0,0.2,0,0.3-0.1,0.4c-0.1,0.1-0.2,0.2-0.4,0.2c-0.1,0-0.3,0-0.4-0.1
					c-0.1-0.1-0.2-0.2-0.3-0.3l-3.7-4.7l0,4.5C-203.6-344-203.8-343.8-204.2-343.8L-204.2-343.8z"/>
				<path class="st1" d="M-193.9-343.8c-0.7,0-1.3-0.1-1.9-0.4c-0.5-0.3-1-0.7-1.2-1.3c-0.6-1.2-0.6-2.7,0-3.9
					c0.3-0.5,0.7-1,1.2-1.3c0.6-0.3,1.2-0.5,1.9-0.5c0.4,0,0.7,0,1.1,0.1c0.3,0.1,0.7,0.2,0.9,0.4c0.2,0.1,0.3,0.2,0.3,0.4
					c0,0.1,0,0.3-0.1,0.4c-0.1,0.1-0.2,0.2-0.3,0.3c-0.2,0-0.4,0-0.5-0.1c-0.2-0.1-0.4-0.2-0.7-0.3c-0.2-0.1-0.5-0.1-0.7-0.1
					c-0.6,0-1.2,0.2-1.7,0.7c-0.8,1.1-0.7,2.6,0,3.7c0.4,0.5,1,0.7,1.7,0.7c0.3,0,0.5,0,0.8-0.1c0.3-0.1,0.5-0.2,0.7-0.3
					c0.1-0.1,0.3-0.1,0.5-0.1c0.1,0,0.3,0.1,0.3,0.2c0.1,0.1,0.1,0.3,0.1,0.4c0,0.2-0.1,0.3-0.3,0.4c-0.3,0.2-0.6,0.4-1,0.5
					C-193.1-343.9-193.5-343.8-193.9-343.8L-193.9-343.8z"/>
				<path class="st1" d="M-189.6-343.9c-0.3,0-0.6-0.2-0.7-0.5c0-0.1,0-0.1,0-0.2l0-5.8c0-0.3,0.2-0.6,0.5-0.7c0.1,0,0.1,0,0.2,0
					l3.6,0c0.4,0,0.5,0.2,0.5,0.5c0,0.3-0.1,0.5-0.4,0.5c0,0-0.1,0-0.1,0l-3.1,0l0,2l2.8,0c0.3,0,0.5,0.2,0.5,0.5s-0.2,0.5-0.5,0.5
					l0,0l-2.8,0l0,2.1l3.1,0c0.3,0,0.5,0.2,0.5,0.5s-0.2,0.5-0.5,0.5L-189.6-343.9z"/>
				<path class="st1" d="M-179.2-343.9c-0.6,0-1.3-0.1-1.8-0.5c-0.4-0.3-0.7-0.8-0.7-1.4c0-0.4,0.1-0.9,0.4-1.2
					c0.3-0.4,0.7-0.7,1.1-0.9l0.1,0c-0.2-0.2-0.4-0.5-0.6-0.8c-0.1-0.2-0.2-0.5-0.2-0.8c0-0.5,0.2-0.9,0.5-1.2
					c0.4-0.3,0.9-0.5,1.4-0.5c0.5,0,0.9,0.1,1.3,0.4c0.3,0.3,0.5,0.7,0.5,1.1c0,0.4-0.1,0.7-0.3,1c-0.3,0.4-0.6,0.7-1,0.9l1.4,1.5
					c0.2-0.5,0.4-1,0.4-1.5c0-0.3,0.2-0.5,0.5-0.5c0,0,0,0,0,0c0.4,0,0.5,0.2,0.5,0.6c0,0.4-0.1,0.8-0.3,1.2c-0.1,0.4-0.3,0.7-0.5,1
					l0.8,0.8c0.1,0.1,0.2,0.2,0.2,0.4c0,0.1-0.1,0.2-0.1,0.3c-0.1,0.1-0.3,0.1-0.4,0.1c-0.1,0-0.3,0-0.4-0.1
					c-0.1-0.1-0.2-0.2-0.3-0.3l-0.5-0.5c-0.3,0.3-0.6,0.5-1,0.6C-178.4-343.9-178.8-343.9-179.2-343.9L-179.2-343.9z M-179.1-344.9
					c0.5,0,1-0.2,1.4-0.6l-1.7-1.8c-0.3,0.1-0.5,0.4-0.7,0.6c-0.1,0.2-0.2,0.5-0.2,0.7c0,0.3,0.1,0.6,0.3,0.8
					C-179.8-344.9-179.5-344.8-179.1-344.9L-179.1-344.9z M-178.9-350.3c-0.2,0-0.4,0.1-0.6,0.2c-0.2,0.1-0.2,0.4-0.2,0.6
					c0,0.2,0,0.3,0.1,0.5c0.1,0.2,0.3,0.4,0.5,0.6c0.3-0.2,0.5-0.3,0.8-0.6c0.1-0.2,0.2-0.4,0.2-0.6c0-0.2-0.1-0.4-0.2-0.5
					C-178.5-350.3-178.7-350.3-178.9-350.3L-178.9-350.3z"/>
				<path class="st1" d="M-168.9-343.9c-0.3,0-0.6-0.2-0.7-0.5c0-0.1,0-0.1,0-0.2l0-5.5l-2,0c-0.3,0-0.5-0.1-0.6-0.4
					c0,0,0-0.1,0-0.1c0-0.4,0.2-0.5,0.6-0.5l5.3,0c0.4,0,0.6,0.2,0.6,0.5c0,0.3-0.2,0.5-0.4,0.6c0,0-0.1,0-0.1,0l-2,0l0,5.5
					c0.1,0.3-0.2,0.6-0.5,0.7C-168.8-343.9-168.9-343.9-168.9-343.9z"/>
				<path class="st1" d="M-164.4-343.9c-0.3,0-0.6-0.2-0.7-0.5c0-0.1,0-0.1,0-0.2l0-5.9c0-0.3,0.2-0.6,0.5-0.7c0.1,0,0.1,0,0.2,0
					l2.4,0c0.7,0,1.3,0.2,1.8,0.6c0.4,0.4,0.7,1,0.6,1.6c0.1,1-0.6,1.9-1.6,2c0.4,0.1,0.7,0.4,0.9,0.8l0.8,1.4
					c0.1,0.2,0.1,0.4,0.1,0.6c-0.1,0.2-0.2,0.3-0.5,0.3c-0.2,0-0.3,0-0.4-0.1c-0.1-0.1-0.2-0.2-0.3-0.4l-1-1.9
					c-0.1-0.2-0.2-0.4-0.4-0.5c-0.2-0.1-0.4-0.1-0.6-0.1l-1,0l0,2.3c0.1,0.3-0.2,0.6-0.5,0.7C-164.2-343.9-164.3-343.9-164.4-343.9z
					 M-163.7-347.9l1.6,0c0.9,0,1.4-0.4,1.4-1.2c0-0.8-0.5-1.2-1.4-1.1l-1.6,0L-163.7-347.9z"/>
				<path class="st1" d="M-158.1-344c-0.2,0-0.4-0.1-0.5-0.2c-0.1-0.2-0.1-0.4,0-0.6l2.7-6c0.1-0.2,0.2-0.3,0.3-0.4
					c0.1-0.1,0.3-0.1,0.4-0.1c0.2,0,0.3,0,0.4,0.1c0.1,0.1,0.3,0.3,0.3,0.4l2.7,5.9c0.1,0.2,0.1,0.4,0,0.6c-0.1,0.2-0.3,0.3-0.5,0.2
					c-0.2,0-0.3,0-0.4-0.1c-0.1-0.1-0.2-0.3-0.3-0.4l-0.5-1.2l-3.5,0l-0.5,1.2c-0.1,0.2-0.2,0.3-0.3,0.4
					C-157.8-344-157.9-344-158.1-344L-158.1-344z M-155.2-349.8l-1.3,3.1l2.6,0L-155.2-349.8L-155.2-349.8z"/>
				<path class="st1" d="M-149.9-344c-0.3,0-0.6-0.2-0.7-0.5c0-0.1,0-0.1,0-0.2l0-6c0-0.4,0.3-0.7,0.6-0.7c0.4,0,0.7,0.3,0.7,0.6
					c0,0,0,0,0,0l0,6c0.1,0.3-0.2,0.6-0.5,0.7C-149.8-344-149.9-344-149.9-344z"/>
				<path class="st1" d="M-147.1-344c-0.3,0-0.6-0.2-0.6-0.5c0-0.1,0-0.1,0-0.2l0-6.1c0-0.2,0-0.3,0.2-0.5c0.1-0.1,0.3-0.2,0.4-0.2
					c0.1,0,0.2,0,0.4,0.1c0.1,0.1,0.2,0.2,0.3,0.3l3.7,4.7l0-4.5c0-0.3,0.2-0.6,0.6-0.6c0.3,0,0.6,0.2,0.6,0.6c0,0,0,0,0,0l0,6.1
					c0,0.2,0,0.3-0.1,0.4c-0.1,0.1-0.2,0.2-0.4,0.2c-0.1,0-0.3,0-0.4-0.1c-0.1-0.1-0.2-0.2-0.3-0.3l-3.7-4.7l0,4.5
					C-146.5-344.2-146.7-344-147.1-344L-147.1-344z"/>
				<path class="st1" d="M-139.5-344.1c-0.3,0-0.6-0.2-0.7-0.5c0-0.1,0-0.1,0-0.2l0-6c0-0.4,0.3-0.7,0.6-0.7c0.4,0,0.7,0.3,0.7,0.6
					c0,0,0,0,0,0.1l0,6c0.1,0.3-0.2,0.6-0.5,0.7C-139.4-344.1-139.4-344.1-139.5-344.1z"/>
				<path class="st1" d="M-136.6-344.1c-0.3,0-0.6-0.2-0.6-0.5c0-0.1,0-0.1,0-0.2l0-6.1c0-0.2,0-0.3,0.2-0.5
					c0.1-0.1,0.3-0.2,0.4-0.2c0.1,0,0.2,0,0.4,0.1c0.1,0.1,0.2,0.2,0.3,0.3l3.7,4.7l0-4.5c0-0.3,0.3-0.6,0.6-0.6
					c0.3,0,0.6,0.3,0.6,0.6l0,6.1c0,0.2,0,0.3-0.1,0.4c-0.1,0.1-0.2,0.2-0.4,0.2c-0.1,0-0.3,0-0.4-0.1c-0.1-0.1-0.2-0.2-0.3-0.3
					l-3.7-4.7l0,4.5C-136-344.3-136.2-344.1-136.6-344.1z"/>
				<path class="st1" d="M-126.2-344.1c-0.7,0-1.4-0.1-2-0.4c-0.5-0.3-1-0.7-1.3-1.3c-0.6-1.2-0.6-2.7,0-3.9c0.3-0.5,0.7-1,1.3-1.3
					c0.6-0.3,1.3-0.5,2-0.5c0.4,0,0.8,0,1.1,0.1c0.4,0.1,0.8,0.2,1.1,0.5c0.1,0.1,0.2,0.2,0.3,0.3c0,0.1,0,0.3-0.1,0.4
					c-0.1,0.1-0.2,0.2-0.3,0.3c-0.2,0.1-0.3,0-0.4-0.1c-0.2-0.1-0.5-0.3-0.8-0.3c-0.3-0.1-0.6-0.1-0.9-0.1c-0.6,0-1.3,0.2-1.7,0.7
					c-0.4,0.5-0.6,1.2-0.6,1.9c0,0.7,0.2,1.4,0.6,1.9c0.5,0.5,1.1,0.7,1.8,0.6c0.2,0,0.5,0,0.7-0.1c0.2,0,0.5-0.1,0.7-0.2l0-1.7
					l-1.1,0c-0.4,0-0.5-0.2-0.5-0.5c0-0.3,0.2-0.5,0.5-0.5l1.7,0c0.3,0,0.5,0.1,0.5,0.4c0,0,0,0.1,0,0.1l0,2.5
					c0,0.3-0.1,0.5-0.4,0.6C-124.7-344.2-125.5-344.1-126.2-344.1L-126.2-344.1z"/>
			</g>
		</g>
	</g>
</g>
</svg>
